<svg xmlns="http://www.w3.org/2000/svg" viewBox="0 0 520 360" role="img" aria-label="KI Modul Assistent">
  <defs>
    <linearGradient id="bg" x1="0" y1="0" x2="1" y2="1">
      <stop offset="0" stop-color="#f4fbff"/>
      <stop offset="1" stop-color="#bfddff"/>
    </linearGradient>
    <linearGradient id="blue" x1="0" y1="0" x2="0" y2="1">
      <stop offset="0" stop-color="#38a6ff"/>
      <stop offset="1" stop-color="#075bd2"/>
    </linearGradient>
    <linearGradient id="panel" x1="0" y1="0" x2="1" y2="1">
      <stop offset="0" stop-color="#ffffff"/>
      <stop offset="1" stop-color="#dceeff"/>
    </linearGradient>
    <filter id="shadow" x="-20%" y="-20%" width="140%" height="140%">
      <feDropShadow dx="0" dy="16" stdDeviation="18" flood-color="#174b86" flood-opacity=".24"/>
    </filter>
  </defs>
  <rect width="520" height="360" rx="28" fill="url(#bg)"/>
  <g filter="url(#shadow)">
    <rect x="70" y="58" width="270" height="220" rx="24" fill="url(#panel)" stroke="#86bfff"/>
    <rect x="92" y="88" width="226" height="34" rx="12" fill="#d9ecff"/>
    <circle cx="112" cy="105" r="7" fill="#1680ff"/>
    <rect x="132" y="98" width="132" height="14" rx="7" fill="#6caeff"/>
    <rect x="92" y="144" width="96" height="72" rx="16" fill="#eef7ff" stroke="#9ac8ff"/>
    <rect x="206" y="144" width="112" height="18" rx="9" fill="#73b4ff"/>
    <rect x="206" y="174" width="90" height="14" rx="7" fill="#a9d2ff"/>
    <rect x="206" y="200" width="104" height="14" rx="7" fill="#c0ddff"/>
    <rect x="92" y="236" width="226" height="18" rx="9" fill="#d0e7ff"/>
  </g>
  <g filter="url(#shadow)">
    <rect x="290" y="112" width="150" height="170" rx="26" fill="url(#blue)"/>
    <circle cx="365" cy="170" r="48" fill="#ffffff" opacity=".18"/>
    <circle cx="365" cy="164" r="34" fill="#ffffff" opacity=".94"/>
    <circle cx="353" cy="158" r="5" fill="#0b57c8"/>
    <circle cx="377" cy="158" r="5" fill="#0b57c8"/>
    <path d="M350 174c10 10 24 10 34 0" fill="none" stroke="#0b57c8" stroke-width="6" stroke-linecap="round"/>
    <rect x="326" y="219" width="78" height="16" rx="8" fill="#ffffff" opacity=".82"/>
    <rect x="340" y="244" width="50" height="10" rx="5" fill="#ffffff" opacity=".55"/>
  </g>
  <g fill="none" stroke="#1475ff" stroke-width="5" stroke-linecap="round" opacity=".78">
    <path d="M340 72h46"/>
    <path d="M363 49v46"/>
    <path d="M414 70l18-18"/>
    <path d="M416 90l22 14"/>
  </g>
  <g fill="#1475ff" opacity=".18">
    <circle cx="95" cy="308" r="18"/>
    <circle cx="430" cy="74" r="12"/>
    <circle cx="455" cy="302" r="20"/>
  </g>
</svg>
