<svg xmlns="http://www.w3.org/2000/svg" width="1280" height="800" viewBox="0 0 1280 800" role="img" aria-label="dbXapp Installation Wartung Schulung">
  <rect width="1280" height="800" rx="38" fill="#eef7ff"/>
  <circle cx="1080" cy="160" r="210" fill="#0d6efd" opacity="0.16"/>
  <circle cx="175" cy="680" r="230" fill="#25a55f" opacity="0.14"/>
  <rect x="175" y="165" width="930" height="470" rx="34" fill="#ffffff" stroke="#b8d9fb" stroke-width="4"/>
  <text x="235" y="255" font-family="Arial, sans-serif" font-size="48" font-weight="800" fill="#10253d">Installation, Wartung und Schulung</text>
  <rect x="235" y="330" width="240" height="190" rx="24" fill="#f6fbff" stroke="#b8d9fb"/>
  <rect x="520" y="330" width="240" height="190" rx="24" fill="#f6fbff" stroke="#b8d9fb"/>
  <rect x="805" y="330" width="240" height="190" rx="24" fill="#f6fbff" stroke="#b8d9fb"/>
  <path d="M315 430 L370 485 L440 375" fill="none" stroke="#25a55f" stroke-width="22" stroke-linecap="round" stroke-linejoin="round"/>
  <circle cx="640" cy="425" r="62" fill="none" stroke="#0d6efd" stroke-width="20"/>
  <path d="M640 365 V425 L690 455" fill="none" stroke="#0d6efd" stroke-width="16" stroke-linecap="round"/>
  <path d="M885 470 L965 380 M885 380 L965 470" stroke="#e62525" stroke-width="20" stroke-linecap="round"/>
  <text x="300" y="590" font-family="Arial, sans-serif" font-size="70" font-weight="900" fill="#10253d">db</text>
  <text x="430" y="590" font-family="Arial, sans-serif" font-size="70" font-weight="900" fill="#e62525">X</text>
  <text x="490" y="590" font-family="Arial, sans-serif" font-size="70" font-weight="900" fill="#10253d">app Service</text>
</svg>
